<mxfile host="app.diagrams.net" modified="2024-04-05T01:06:17.786Z" agent="Mozilla/5.0 (Windows NT 10.0; Win64; x64) AppleWebKit/537.36 (KHTML, like Gecko) Chrome/123.0.0.0 Safari/537.36 Edg/123.0.0.0" etag="_qeDgYG87OJDE5p0ygYk" version="24.2.2" type="device">
  <diagram name="페이지-1" id="w-M6KpDqijgZ_kan20Fg">
    <mxGraphModel dx="1786" dy="1201" grid="0" gridSize="10" guides="1" tooltips="1" connect="1" arrows="1" fold="1" page="0" pageScale="1" pageWidth="827" pageHeight="1169" math="0" shadow="0">
      <root>
        <mxCell id="0" />
        <mxCell id="1" parent="0" />
        <mxCell id="CzPTGnXcsFvgWBa5X-qv-2" value="돈 입력(money)" style="rounded=0;whiteSpace=wrap;html=1;" vertex="1" parent="1">
          <mxGeometry x="80" y="16" width="214" height="63" as="geometry" />
        </mxCell>
        <mxCell id="CzPTGnXcsFvgWBa5X-qv-16" value="" style="edgeStyle=none;curved=1;rounded=0;orthogonalLoop=1;jettySize=auto;html=1;fontSize=12;startSize=8;endSize=8;" edge="1" parent="1" source="CzPTGnXcsFvgWBa5X-qv-3" target="CzPTGnXcsFvgWBa5X-qv-7">
          <mxGeometry relative="1" as="geometry" />
        </mxCell>
        <mxCell id="CzPTGnXcsFvgWBa5X-qv-3" value="커피 구매 여부(coffee)" style="rounded=0;whiteSpace=wrap;html=1;" vertex="1" parent="1">
          <mxGeometry x="80" y="109" width="214" height="63" as="geometry" />
        </mxCell>
        <mxCell id="CzPTGnXcsFvgWBa5X-qv-4" value="커피 빵 구매 관련 프로그램" style="rounded=1;whiteSpace=wrap;html=1;" vertex="1" parent="1">
          <mxGeometry x="48.5" y="-99" width="277" height="70" as="geometry" />
        </mxCell>
        <mxCell id="CzPTGnXcsFvgWBa5X-qv-7" value="구매를 희망하는가?" style="rhombus;whiteSpace=wrap;html=1;" vertex="1" parent="1">
          <mxGeometry x="80" y="205" width="210" height="80" as="geometry" />
        </mxCell>
        <mxCell id="CzPTGnXcsFvgWBa5X-qv-32" style="edgeStyle=none;curved=1;rounded=0;orthogonalLoop=1;jettySize=auto;html=1;exitX=0.5;exitY=1;exitDx=0;exitDy=0;fontSize=12;startSize=8;endSize=8;" edge="1" parent="1" source="CzPTGnXcsFvgWBa5X-qv-8">
          <mxGeometry relative="1" as="geometry">
            <mxPoint x="174" y="569" as="targetPoint" />
          </mxGeometry>
        </mxCell>
        <mxCell id="CzPTGnXcsFvgWBa5X-qv-8" value="커피 구매 완료" style="rounded=0;whiteSpace=wrap;html=1;" vertex="1" parent="1">
          <mxGeometry x="-153" y="398" width="151" height="60" as="geometry" />
        </mxCell>
        <mxCell id="CzPTGnXcsFvgWBa5X-qv-9" value="빵 구매 여부(bread)" style="rounded=0;whiteSpace=wrap;html=1;" vertex="1" parent="1">
          <mxGeometry x="181" y="545" width="218" height="40" as="geometry" />
        </mxCell>
        <mxCell id="CzPTGnXcsFvgWBa5X-qv-10" value="돈이 충분한가?" style="rhombus;whiteSpace=wrap;html=1;" vertex="1" parent="1">
          <mxGeometry x="-68" y="296" width="213" height="80" as="geometry" />
        </mxCell>
        <mxCell id="CzPTGnXcsFvgWBa5X-qv-11" value="" style="endArrow=classic;html=1;rounded=0;fontSize=12;startSize=8;endSize=8;curved=1;entryX=0.576;entryY=0.05;entryDx=0;entryDy=0;entryPerimeter=0;" edge="1" parent="1" target="CzPTGnXcsFvgWBa5X-qv-8">
          <mxGeometry width="50" height="50" relative="1" as="geometry">
            <mxPoint x="-27" y="349" as="sourcePoint" />
            <mxPoint x="-64" y="424" as="targetPoint" />
          </mxGeometry>
        </mxCell>
        <mxCell id="CzPTGnXcsFvgWBa5X-qv-18" value="커피 구매 실패" style="rounded=0;whiteSpace=wrap;html=1;" vertex="1" parent="1">
          <mxGeometry x="64" y="401" width="151" height="60" as="geometry" />
        </mxCell>
        <mxCell id="CzPTGnXcsFvgWBa5X-qv-19" value="" style="endArrow=classic;html=1;rounded=0;fontSize=12;startSize=8;endSize=8;curved=1;" edge="1" parent="1">
          <mxGeometry width="50" height="50" relative="1" as="geometry">
            <mxPoint x="260" y="256.5" as="sourcePoint" />
            <mxPoint x="264" y="538" as="targetPoint" />
          </mxGeometry>
        </mxCell>
        <mxCell id="CzPTGnXcsFvgWBa5X-qv-20" value="아니요" style="text;strokeColor=none;fillColor=none;html=1;align=center;verticalAlign=middle;whiteSpace=wrap;rounded=0;fontSize=16;" vertex="1" parent="1">
          <mxGeometry x="282" y="288" width="60" height="30" as="geometry" />
        </mxCell>
        <mxCell id="CzPTGnXcsFvgWBa5X-qv-21" value="아니요" style="text;strokeColor=none;fillColor=none;html=1;align=center;verticalAlign=middle;whiteSpace=wrap;rounded=0;fontSize=16;" vertex="1" parent="1">
          <mxGeometry x="152" y="352" width="60" height="30" as="geometry" />
        </mxCell>
        <mxCell id="CzPTGnXcsFvgWBa5X-qv-22" value="" style="endArrow=classic;html=1;rounded=0;fontSize=12;startSize=8;endSize=8;curved=1;exitX=0.793;exitY=0.75;exitDx=0;exitDy=0;exitPerimeter=0;entryX=0.5;entryY=0;entryDx=0;entryDy=0;" edge="1" parent="1" source="CzPTGnXcsFvgWBa5X-qv-10" target="CzPTGnXcsFvgWBa5X-qv-18">
          <mxGeometry width="50" height="50" relative="1" as="geometry">
            <mxPoint x="108" y="376" as="sourcePoint" />
            <mxPoint x="158" y="326" as="targetPoint" />
          </mxGeometry>
        </mxCell>
        <mxCell id="CzPTGnXcsFvgWBa5X-qv-23" value="예" style="text;strokeColor=none;fillColor=none;html=1;align=center;verticalAlign=middle;whiteSpace=wrap;rounded=0;fontSize=16;" vertex="1" parent="1">
          <mxGeometry x="-135" y="346" width="60" height="30" as="geometry" />
        </mxCell>
        <mxCell id="CzPTGnXcsFvgWBa5X-qv-28" value="" style="endArrow=classic;html=1;rounded=0;fontSize=12;startSize=8;endSize=8;curved=1;entryX=1;entryY=0;entryDx=0;entryDy=0;" edge="1" parent="1" target="CzPTGnXcsFvgWBa5X-qv-10">
          <mxGeometry width="50" height="50" relative="1" as="geometry">
            <mxPoint x="137" y="264" as="sourcePoint" />
            <mxPoint x="80" y="328" as="targetPoint" />
            <Array as="points">
              <mxPoint x="119" y="286" />
            </Array>
          </mxGeometry>
        </mxCell>
        <mxCell id="CzPTGnXcsFvgWBa5X-qv-31" value="" style="endArrow=classic;html=1;rounded=0;fontSize=12;startSize=8;endSize=8;curved=1;" edge="1" parent="1">
          <mxGeometry width="50" height="50" relative="1" as="geometry">
            <mxPoint x="196" y="461" as="sourcePoint" />
            <mxPoint x="200" y="543" as="targetPoint" />
          </mxGeometry>
        </mxCell>
        <mxCell id="CzPTGnXcsFvgWBa5X-qv-34" value="" style="edgeStyle=none;curved=1;rounded=0;orthogonalLoop=1;jettySize=auto;html=1;fontSize=12;startSize=8;endSize=8;" edge="1" parent="1">
          <mxGeometry relative="1" as="geometry">
            <mxPoint x="181" y="79" as="sourcePoint" />
            <mxPoint x="183" y="108" as="targetPoint" />
          </mxGeometry>
        </mxCell>
        <mxCell id="CzPTGnXcsFvgWBa5X-qv-35" value="예" style="text;strokeColor=none;fillColor=none;html=1;align=center;verticalAlign=middle;whiteSpace=wrap;rounded=0;fontSize=16;" vertex="1" parent="1">
          <mxGeometry x="48.5" y="263" width="60" height="30" as="geometry" />
        </mxCell>
      </root>
    </mxGraphModel>
  </diagram>
</mxfile>
